<mxfile host="app.diagrams.net" agent="Mozilla/5.0 (Windows NT 10.0; Win64; x64) AppleWebKit/537.36 (KHTML, like Gecko) Chrome/136.0.0.0 Safari/537.36 Edg/136.0.0.0" version="27.1.0">
  <diagram name="Trang-1" id="gfGajwejrKShWUmlxwkR">
    <mxGraphModel dx="1034" dy="574" grid="1" gridSize="10" guides="1" tooltips="1" connect="1" arrows="1" fold="1" page="1" pageScale="1" pageWidth="827" pageHeight="1169" math="0" shadow="0">
      <root>
        <mxCell id="0" />
        <mxCell id="1" parent="0" />
        <mxCell id="q6Xu1_0wHjDS-D84RwUQ-1" value="Khóa học" style="rounded=1;whiteSpace=wrap;html=1;" vertex="1" parent="1">
          <mxGeometry x="330" y="200" width="120" height="60" as="geometry" />
        </mxCell>
        <mxCell id="q6Xu1_0wHjDS-D84RwUQ-2" value="&lt;u&gt;&lt;b&gt;Tên khóa học&lt;/b&gt;&lt;/u&gt;" style="text;html=1;align=center;verticalAlign=middle;whiteSpace=wrap;rounded=0;" vertex="1" parent="1">
          <mxGeometry x="500" y="180" width="60" height="30" as="geometry" />
        </mxCell>
        <mxCell id="q6Xu1_0wHjDS-D84RwUQ-3" value="Mô tả" style="text;html=1;align=center;verticalAlign=middle;whiteSpace=wrap;rounded=0;" vertex="1" parent="1">
          <mxGeometry x="500" y="220" width="60" height="30" as="geometry" />
        </mxCell>
        <mxCell id="q6Xu1_0wHjDS-D84RwUQ-4" value="Học phí" style="text;html=1;align=center;verticalAlign=middle;whiteSpace=wrap;rounded=0;" vertex="1" parent="1">
          <mxGeometry x="500" y="260" width="60" height="30" as="geometry" />
        </mxCell>
        <mxCell id="q6Xu1_0wHjDS-D84RwUQ-5" value="Lịch học" style="rounded=1;whiteSpace=wrap;html=1;" vertex="1" parent="1">
          <mxGeometry x="330" y="750" width="120" height="60" as="geometry" />
        </mxCell>
        <mxCell id="q6Xu1_0wHjDS-D84RwUQ-6" value="Lớp học" style="rounded=1;whiteSpace=wrap;html=1;" vertex="1" parent="1">
          <mxGeometry x="330" y="485" width="120" height="60" as="geometry" />
        </mxCell>
        <mxCell id="q6Xu1_0wHjDS-D84RwUQ-7" value="Giảng viên" style="rounded=1;whiteSpace=wrap;html=1;" vertex="1" parent="1">
          <mxGeometry x="40" y="485" width="120" height="60" as="geometry" />
        </mxCell>
        <mxCell id="q6Xu1_0wHjDS-D84RwUQ-8" value="Học viên" style="rounded=1;whiteSpace=wrap;html=1;" vertex="1" parent="1">
          <mxGeometry x="600" y="485" width="120" height="60" as="geometry" />
        </mxCell>
        <mxCell id="q6Xu1_0wHjDS-D84RwUQ-9" value="Thuộc" style="rhombus;whiteSpace=wrap;html=1;" vertex="1" parent="1">
          <mxGeometry x="350" y="350" width="80" height="80" as="geometry" />
        </mxCell>
        <mxCell id="q6Xu1_0wHjDS-D84RwUQ-10" value="&lt;u&gt;&lt;b&gt;Ngày bắt đầu&lt;/b&gt;&lt;/u&gt;" style="text;html=1;align=center;verticalAlign=middle;whiteSpace=wrap;rounded=0;" vertex="1" parent="1">
          <mxGeometry x="500" y="710" width="60" height="40" as="geometry" />
        </mxCell>
        <mxCell id="q6Xu1_0wHjDS-D84RwUQ-11" value="Ngày kết thúc" style="text;html=1;align=center;verticalAlign=middle;whiteSpace=wrap;rounded=0;" vertex="1" parent="1">
          <mxGeometry x="480" y="780" width="60" height="30" as="geometry" />
        </mxCell>
        <mxCell id="q6Xu1_0wHjDS-D84RwUQ-12" value="Thời gian học các buổi trong tuần" style="text;html=1;align=center;verticalAlign=middle;whiteSpace=wrap;rounded=0;" vertex="1" parent="1">
          <mxGeometry x="480" y="840" width="60" height="30" as="geometry" />
        </mxCell>
        <mxCell id="q6Xu1_0wHjDS-D84RwUQ-13" value="Có" style="rhombus;whiteSpace=wrap;html=1;" vertex="1" parent="1">
          <mxGeometry x="350" y="620" width="80" height="80" as="geometry" />
        </mxCell>
        <mxCell id="q6Xu1_0wHjDS-D84RwUQ-14" value="&lt;u&gt;&lt;b&gt;Mã Học Viên&lt;/b&gt;&lt;/u&gt;" style="text;html=1;align=center;verticalAlign=middle;whiteSpace=wrap;rounded=0;" vertex="1" parent="1">
          <mxGeometry x="760" y="445" width="60" height="30" as="geometry" />
        </mxCell>
        <mxCell id="q6Xu1_0wHjDS-D84RwUQ-15" value="Tên học viên" style="text;html=1;align=center;verticalAlign=middle;whiteSpace=wrap;rounded=0;" vertex="1" parent="1">
          <mxGeometry x="760" y="500" width="60" height="30" as="geometry" />
        </mxCell>
        <mxCell id="q6Xu1_0wHjDS-D84RwUQ-16" value="Ngày đăng ký" style="text;html=1;align=center;verticalAlign=middle;whiteSpace=wrap;rounded=0;" vertex="1" parent="1">
          <mxGeometry x="760" y="545" width="60" height="30" as="geometry" />
        </mxCell>
        <mxCell id="q6Xu1_0wHjDS-D84RwUQ-17" value="Tình trạng học phí" style="text;html=1;align=center;verticalAlign=middle;whiteSpace=wrap;rounded=0;" vertex="1" parent="1">
          <mxGeometry x="760" y="600" width="60" height="30" as="geometry" />
        </mxCell>
        <mxCell id="q6Xu1_0wHjDS-D84RwUQ-18" value="&lt;u&gt;&lt;b&gt;Mã GV&lt;/b&gt;&lt;/u&gt;" style="text;html=1;align=center;verticalAlign=middle;whiteSpace=wrap;rounded=0;" vertex="1" parent="1">
          <mxGeometry x="140" y="430" width="60" height="30" as="geometry" />
        </mxCell>
        <mxCell id="q6Xu1_0wHjDS-D84RwUQ-19" value="Tên GV" style="text;html=1;align=center;verticalAlign=middle;whiteSpace=wrap;rounded=0;" vertex="1" parent="1">
          <mxGeometry x="20" y="430" width="60" height="30" as="geometry" />
        </mxCell>
        <mxCell id="q6Xu1_0wHjDS-D84RwUQ-20" value="Đăng kí" style="rhombus;whiteSpace=wrap;html=1;" vertex="1" parent="1">
          <mxGeometry x="480" y="475" width="80" height="80" as="geometry" />
        </mxCell>
        <mxCell id="q6Xu1_0wHjDS-D84RwUQ-21" value="Do" style="rhombus;whiteSpace=wrap;html=1;" vertex="1" parent="1">
          <mxGeometry x="210" y="475" width="80" height="80" as="geometry" />
        </mxCell>
        <mxCell id="q6Xu1_0wHjDS-D84RwUQ-22" value="&lt;u&gt;&lt;b&gt;Mã lớp&lt;/b&gt;&lt;/u&gt;" style="text;html=1;align=center;verticalAlign=middle;whiteSpace=wrap;rounded=0;" vertex="1" parent="1">
          <mxGeometry x="250" y="575" width="60" height="30" as="geometry" />
        </mxCell>
        <mxCell id="q6Xu1_0wHjDS-D84RwUQ-23" value="Tên lớp" style="text;html=1;align=center;verticalAlign=middle;whiteSpace=wrap;rounded=0;" vertex="1" parent="1">
          <mxGeometry x="250" y="630" width="60" height="30" as="geometry" />
        </mxCell>
        <mxCell id="q6Xu1_0wHjDS-D84RwUQ-26" value="" style="endArrow=none;html=1;rounded=0;exitX=1;exitY=0.5;exitDx=0;exitDy=0;entryX=0;entryY=0.5;entryDx=0;entryDy=0;" edge="1" parent="1" source="q6Xu1_0wHjDS-D84RwUQ-21" target="q6Xu1_0wHjDS-D84RwUQ-6">
          <mxGeometry width="50" height="50" relative="1" as="geometry">
            <mxPoint x="280" y="560" as="sourcePoint" />
            <mxPoint x="330" y="510" as="targetPoint" />
          </mxGeometry>
        </mxCell>
        <mxCell id="q6Xu1_0wHjDS-D84RwUQ-27" value="" style="endArrow=none;html=1;rounded=0;entryX=0;entryY=0.5;entryDx=0;entryDy=0;exitX=1;exitY=0.5;exitDx=0;exitDy=0;" edge="1" parent="1" source="q6Xu1_0wHjDS-D84RwUQ-7" target="q6Xu1_0wHjDS-D84RwUQ-21">
          <mxGeometry width="50" height="50" relative="1" as="geometry">
            <mxPoint x="150" y="525" as="sourcePoint" />
            <mxPoint x="200" y="475" as="targetPoint" />
          </mxGeometry>
        </mxCell>
        <mxCell id="q6Xu1_0wHjDS-D84RwUQ-28" value="" style="endArrow=none;html=1;rounded=0;entryX=0.5;entryY=1;entryDx=0;entryDy=0;" edge="1" parent="1" target="q6Xu1_0wHjDS-D84RwUQ-6">
          <mxGeometry width="50" height="50" relative="1" as="geometry">
            <mxPoint x="389" y="620" as="sourcePoint" />
            <mxPoint x="439" y="570" as="targetPoint" />
          </mxGeometry>
        </mxCell>
        <mxCell id="q6Xu1_0wHjDS-D84RwUQ-29" value="" style="endArrow=none;html=1;rounded=0;exitX=0.5;exitY=0;exitDx=0;exitDy=0;" edge="1" parent="1" source="q6Xu1_0wHjDS-D84RwUQ-5">
          <mxGeometry width="50" height="50" relative="1" as="geometry">
            <mxPoint x="390" y="740" as="sourcePoint" />
            <mxPoint x="390" y="700" as="targetPoint" />
          </mxGeometry>
        </mxCell>
        <mxCell id="q6Xu1_0wHjDS-D84RwUQ-30" value="" style="endArrow=none;html=1;rounded=0;exitX=1;exitY=0.5;exitDx=0;exitDy=0;entryX=0;entryY=0.5;entryDx=0;entryDy=0;" edge="1" parent="1" source="q6Xu1_0wHjDS-D84RwUQ-6" target="q6Xu1_0wHjDS-D84RwUQ-20">
          <mxGeometry width="50" height="50" relative="1" as="geometry">
            <mxPoint x="430" y="570" as="sourcePoint" />
            <mxPoint x="480" y="520" as="targetPoint" />
          </mxGeometry>
        </mxCell>
        <mxCell id="q6Xu1_0wHjDS-D84RwUQ-31" value="" style="endArrow=none;html=1;rounded=0;entryX=0;entryY=0.5;entryDx=0;entryDy=0;exitX=1;exitY=0.5;exitDx=0;exitDy=0;" edge="1" parent="1" source="q6Xu1_0wHjDS-D84RwUQ-20" target="q6Xu1_0wHjDS-D84RwUQ-8">
          <mxGeometry width="50" height="50" relative="1" as="geometry">
            <mxPoint x="560" y="520" as="sourcePoint" />
            <mxPoint x="610" y="470" as="targetPoint" />
          </mxGeometry>
        </mxCell>
        <mxCell id="q6Xu1_0wHjDS-D84RwUQ-32" value="" style="endArrow=none;html=1;rounded=0;exitX=0.5;exitY=0;exitDx=0;exitDy=0;" edge="1" parent="1" source="q6Xu1_0wHjDS-D84RwUQ-6">
          <mxGeometry width="50" height="50" relative="1" as="geometry">
            <mxPoint x="340" y="480" as="sourcePoint" />
            <mxPoint x="390" y="430" as="targetPoint" />
          </mxGeometry>
        </mxCell>
        <mxCell id="q6Xu1_0wHjDS-D84RwUQ-33" value="" style="endArrow=none;html=1;rounded=0;entryX=0.5;entryY=1;entryDx=0;entryDy=0;" edge="1" parent="1" target="q6Xu1_0wHjDS-D84RwUQ-1">
          <mxGeometry width="50" height="50" relative="1" as="geometry">
            <mxPoint x="389" y="350" as="sourcePoint" />
            <mxPoint x="439" y="300" as="targetPoint" />
          </mxGeometry>
        </mxCell>
        <mxCell id="q6Xu1_0wHjDS-D84RwUQ-34" value="" style="endArrow=none;html=1;rounded=0;entryX=0.5;entryY=1;entryDx=0;entryDy=0;" edge="1" parent="1" target="q6Xu1_0wHjDS-D84RwUQ-18">
          <mxGeometry width="50" height="50" relative="1" as="geometry">
            <mxPoint x="90" y="485" as="sourcePoint" />
            <mxPoint x="140" y="435" as="targetPoint" />
          </mxGeometry>
        </mxCell>
        <mxCell id="q6Xu1_0wHjDS-D84RwUQ-35" value="" style="endArrow=none;html=1;rounded=0;entryX=0.5;entryY=1;entryDx=0;entryDy=0;" edge="1" parent="1" target="q6Xu1_0wHjDS-D84RwUQ-19">
          <mxGeometry width="50" height="50" relative="1" as="geometry">
            <mxPoint x="90" y="485" as="sourcePoint" />
            <mxPoint x="140" y="435" as="targetPoint" />
          </mxGeometry>
        </mxCell>
        <mxCell id="q6Xu1_0wHjDS-D84RwUQ-36" value="" style="endArrow=none;html=1;rounded=0;entryX=0;entryY=0.5;entryDx=0;entryDy=0;" edge="1" parent="1" target="q6Xu1_0wHjDS-D84RwUQ-2">
          <mxGeometry width="50" height="50" relative="1" as="geometry">
            <mxPoint x="450" y="230" as="sourcePoint" />
            <mxPoint x="500" y="180" as="targetPoint" />
          </mxGeometry>
        </mxCell>
        <mxCell id="q6Xu1_0wHjDS-D84RwUQ-37" value="" style="endArrow=none;html=1;rounded=0;entryX=0;entryY=0.5;entryDx=0;entryDy=0;" edge="1" parent="1" target="q6Xu1_0wHjDS-D84RwUQ-3">
          <mxGeometry width="50" height="50" relative="1" as="geometry">
            <mxPoint x="450" y="230" as="sourcePoint" />
            <mxPoint x="500" y="180" as="targetPoint" />
          </mxGeometry>
        </mxCell>
        <mxCell id="q6Xu1_0wHjDS-D84RwUQ-38" value="" style="endArrow=none;html=1;rounded=0;entryX=0;entryY=0.5;entryDx=0;entryDy=0;" edge="1" parent="1" target="q6Xu1_0wHjDS-D84RwUQ-4">
          <mxGeometry width="50" height="50" relative="1" as="geometry">
            <mxPoint x="450" y="230" as="sourcePoint" />
            <mxPoint x="500" y="180" as="targetPoint" />
          </mxGeometry>
        </mxCell>
        <mxCell id="q6Xu1_0wHjDS-D84RwUQ-39" value="" style="endArrow=none;html=1;rounded=0;entryX=0;entryY=0.5;entryDx=0;entryDy=0;" edge="1" parent="1" target="q6Xu1_0wHjDS-D84RwUQ-14">
          <mxGeometry width="50" height="50" relative="1" as="geometry">
            <mxPoint x="720" y="510" as="sourcePoint" />
            <mxPoint x="770" y="460" as="targetPoint" />
          </mxGeometry>
        </mxCell>
        <mxCell id="q6Xu1_0wHjDS-D84RwUQ-40" value="" style="endArrow=none;html=1;rounded=0;entryX=0;entryY=0.5;entryDx=0;entryDy=0;" edge="1" parent="1" target="q6Xu1_0wHjDS-D84RwUQ-15">
          <mxGeometry width="50" height="50" relative="1" as="geometry">
            <mxPoint x="720" y="510" as="sourcePoint" />
            <mxPoint x="770" y="460" as="targetPoint" />
          </mxGeometry>
        </mxCell>
        <mxCell id="q6Xu1_0wHjDS-D84RwUQ-41" value="" style="endArrow=none;html=1;rounded=0;entryX=0;entryY=0.5;entryDx=0;entryDy=0;" edge="1" parent="1" target="q6Xu1_0wHjDS-D84RwUQ-16">
          <mxGeometry width="50" height="50" relative="1" as="geometry">
            <mxPoint x="720" y="510" as="sourcePoint" />
            <mxPoint x="770" y="460" as="targetPoint" />
          </mxGeometry>
        </mxCell>
        <mxCell id="q6Xu1_0wHjDS-D84RwUQ-42" value="" style="endArrow=none;html=1;rounded=0;exitX=1;exitY=0.5;exitDx=0;exitDy=0;" edge="1" parent="1" source="q6Xu1_0wHjDS-D84RwUQ-22">
          <mxGeometry width="50" height="50" relative="1" as="geometry">
            <mxPoint x="300" y="595" as="sourcePoint" />
            <mxPoint x="350" y="545" as="targetPoint" />
          </mxGeometry>
        </mxCell>
        <mxCell id="q6Xu1_0wHjDS-D84RwUQ-43" value="" style="endArrow=none;html=1;rounded=0;exitX=1;exitY=0.75;exitDx=0;exitDy=0;" edge="1" parent="1" source="q6Xu1_0wHjDS-D84RwUQ-23">
          <mxGeometry width="50" height="50" relative="1" as="geometry">
            <mxPoint x="300" y="600" as="sourcePoint" />
            <mxPoint x="350" y="550" as="targetPoint" />
          </mxGeometry>
        </mxCell>
        <mxCell id="q6Xu1_0wHjDS-D84RwUQ-44" value="" style="endArrow=none;html=1;rounded=0;entryX=0;entryY=0.5;entryDx=0;entryDy=0;" edge="1" parent="1" target="q6Xu1_0wHjDS-D84RwUQ-17">
          <mxGeometry width="50" height="50" relative="1" as="geometry">
            <mxPoint x="720" y="510" as="sourcePoint" />
            <mxPoint x="770" y="460" as="targetPoint" />
          </mxGeometry>
        </mxCell>
        <mxCell id="q6Xu1_0wHjDS-D84RwUQ-45" value="" style="endArrow=none;html=1;rounded=0;entryX=0;entryY=0.5;entryDx=0;entryDy=0;" edge="1" parent="1" target="q6Xu1_0wHjDS-D84RwUQ-10">
          <mxGeometry width="50" height="50" relative="1" as="geometry">
            <mxPoint x="450" y="780" as="sourcePoint" />
            <mxPoint x="500" y="730" as="targetPoint" />
          </mxGeometry>
        </mxCell>
        <mxCell id="q6Xu1_0wHjDS-D84RwUQ-46" value="" style="endArrow=none;html=1;rounded=0;entryX=0;entryY=0.5;entryDx=0;entryDy=0;" edge="1" parent="1" target="q6Xu1_0wHjDS-D84RwUQ-11">
          <mxGeometry width="50" height="50" relative="1" as="geometry">
            <mxPoint x="450" y="780" as="sourcePoint" />
            <mxPoint x="500" y="730" as="targetPoint" />
          </mxGeometry>
        </mxCell>
        <mxCell id="q6Xu1_0wHjDS-D84RwUQ-48" value="" style="endArrow=none;html=1;rounded=0;entryX=0;entryY=0.5;entryDx=0;entryDy=0;" edge="1" parent="1" target="q6Xu1_0wHjDS-D84RwUQ-12">
          <mxGeometry width="50" height="50" relative="1" as="geometry">
            <mxPoint x="450" y="780" as="sourcePoint" />
            <mxPoint x="500" y="730" as="targetPoint" />
          </mxGeometry>
        </mxCell>
      </root>
    </mxGraphModel>
  </diagram>
</mxfile>
